<svg id="sane-logo" version="1.1"  xmlns="http://www.w3.org/2000/svg" x="0px" y="0px" viewBox="-105 314 400 165"
   style="enable-background:new -105 314 400 165;" xml:space="preserve">
      <g id="ember-on-sails" transform="translate(116.831683, 133.192771)">
        <path id="Fill-42" style="fill:#ECA248;" d="M-103.313,315.94v21.782c0,0.101,0.083,0.185,0.184,0.185h21.697
          c0.103,0,0.184-0.083,0.184-0.185v-5.167c0-0.103-0.081-0.185-0.184-0.185h-16.18c-0.101,0-0.184-0.083-0.184-0.187v-2.399
          c0-0.101,0.083-0.185,0.184-0.185h16.18c0.103,0,0.184-0.083,0.184-0.185V315.94c0-0.101-0.081-0.185-0.184-0.185h-21.697
          C-103.23,315.755-103.313,315.839-103.313,315.94L-103.313,315.94z M-86.947,324.063h-10.665c-0.101,0-0.184-0.083-0.184-0.185
          v-2.403c0-0.101,0.083-0.183,0.184-0.183h10.665c0.103,0,0.184,0.082,0.184,0.183v2.403
          C-86.762,323.98-86.844,324.063-86.947,324.063L-86.947,324.063z"/>
        <path id="Fill-43" style="fill:#ECA248;" d="M-78.485,315.94v21.782c0,0.101,0.081,0.185,0.184,0.185h5.149
          c0.101,0,0.184-0.083,0.184-0.185v-16.248c0-0.101,0.081-0.183,0.182-0.183h2.39c0.103,0,0.184,0.082,0.184,0.183v16.248
          c0,0.101,0.083,0.185,0.184,0.185h5.149c0.103,0,0.184-0.083,0.184-0.185v-16.248c0-0.101,0.083-0.183,0.184-0.183h2.39
          c0.103,0,0.184,0.082,0.184,0.183v16.248c0,0.101,0.083,0.185,0.184,0.185h5.149c0.101,0,0.184-0.083,0.184-0.185V315.94
          c0-0.101-0.083-0.185-0.184-0.185h-21.697C-78.404,315.755-78.485,315.839-78.485,315.94"/>
        <path id="Fill-44" style="fill:#ECA248;" d="M-48.145,321.105v-5.165c0-0.101-0.083-0.185-0.184-0.185h-5.149
          c-0.101,0-0.184,0.083-0.184,0.185v21.782c0,0.101,0.083,0.185,0.184,0.185h21.699c0.103,0,0.184-0.083,0.184-0.185v-16.248
          c0-0.101-0.081-0.183-0.184-0.183H-47.96C-48.061,321.292-48.145,321.208-48.145,321.105L-48.145,321.105z M-37.295,332.371
          H-47.96c-0.101,0-0.184-0.083-0.184-0.187v-5.169c0-0.101,0.083-0.185,0.184-0.185h10.665c0.103,0,0.184,0.083,0.184,0.185
          v5.169C-37.111,332.287-37.192,332.371-37.295,332.371L-37.295,332.371z"/>
        <path id="Fill-45" style="fill:#ECA248;" d="M-28.834,315.94v21.782c0,0.101,0.081,0.185,0.184,0.185h21.697
          c0.103,0,0.184-0.083,0.184-0.185v-5.167c0-0.103-0.081-0.185-0.184-0.185h-16.182c-0.101,0-0.184-0.083-0.184-0.187v-2.399
          c0-0.101,0.083-0.185,0.184-0.185h16.182c0.103,0,0.184-0.083,0.184-0.185V315.94c0-0.101-0.081-0.185-0.184-0.185H-28.65
          C-28.752,315.755-28.834,315.839-28.834,315.94L-28.834,315.94z M-12.467,324.063h-10.667c-0.101,0-0.184-0.083-0.184-0.185
          v-2.403c0-0.101,0.083-0.183,0.184-0.183h10.667c0.101,0,0.184,0.082,0.184,0.183v2.403
          C-12.283,323.98-12.366,324.063-12.467,324.063L-12.467,324.063z"/>
        <path id="Fill-46" style="fill:#ECA248;" d="M12.541,315.94c0-0.101-0.081-0.185-0.182-0.185H-3.826
          c-0.101,0-0.184,0.083-0.184,0.185v21.782c0,0.101,0.083,0.185,0.184,0.185h5.149c0.101,0,0.184-0.083,0.184-0.185v-16.248
          c0-0.101,0.083-0.183,0.184-0.183h10.667c0.101,0,0.182-0.083,0.182-0.187V315.94"/>
        <path id="Fill-47" style="fill:#ECA248;" d="M48.4,315.94v21.782c0,0.101,0.083,0.185,0.184,0.185h5.15
          c0.101,0,0.184-0.083,0.184-0.185v-16.248c0-0.101,0.083-0.183,0.184-0.183h10.669c0.101,0,0.184,0.082,0.184,0.183v16.248
          c0,0.101,0.081,0.185,0.184,0.185h5.145c0.101,0,0.184-0.083,0.184-0.185V315.94c0-0.101-0.083-0.185-0.184-0.185H48.584
          C48.483,315.755,48.4,315.839,48.4,315.94"/>
        <path id="Fill-48" style="fill:#ECA248;" d="M23.762,315.755c-0.103,0-0.186,0.083-0.186,0.185v21.782
          c0,0.101,0.083,0.185,0.186,0.185h21.697c0.101,0,0.184-0.083,0.184-0.185V315.94c0-0.101-0.083-0.185-0.184-0.185H23.762
          L23.762,315.755z M29.091,332.184v-10.709c0-0.101,0.083-0.183,0.184-0.183h10.669c0.103,0,0.184,0.082,0.184,0.183v10.709
          c0,0.103-0.081,0.187-0.184,0.187H29.275C29.174,332.371,29.091,332.287,29.091,332.184L29.091,332.184z"/>
        <path id="Fill-49" style="fill:#ECA248;" d="M81.505,315.94v13.474c0,0.101,0.083,0.185,0.184,0.185h16.182
          c0.101,0,0.184,0.083,0.184,0.185v2.399c0,0.103-0.083,0.187-0.184,0.187H81.689c-0.101,0-0.184,0.082-0.184,0.185v5.167
          c0,0.101,0.083,0.185,0.184,0.185h21.695c0.103,0,0.184-0.083,0.184-0.185v-13.474c0-0.103-0.081-0.185-0.184-0.185h-16.18
          c-0.103,0-0.184-0.083-0.184-0.185v-2.403c0-0.101,0.081-0.183,0.184-0.183h10.667c0.101,0,0.184-0.083,0.184-0.187v-5.165
          c0-0.101-0.083-0.185-0.184-0.185H81.689C81.588,315.755,81.505,315.839,81.505,315.94"/>
        <path id="Fill-50" style="fill:#ECA248;" d="M100.943,321.292h21.754c0.101,0,0.184,0.082,0.184,0.183v2.403
          c0,0.101-0.083,0.185-0.184,0.185h-16.184c-0.101,0-0.184,0.082-0.184,0.185v13.474c0,0.101,0.083,0.185,0.184,0.185h21.701
          c0.101,0,0.184-0.083,0.184-0.185V315.94c0-0.101-0.083-0.185-0.184-0.185h-27.271c-0.101,0-0.184,0.083-0.184,0.185v5.165
          C100.758,321.208,100.842,321.292,100.943,321.292L100.943,321.292z M122.697,332.371h-10.665c-0.101,0-0.184-0.083-0.184-0.187
          v-2.399c0-0.101,0.083-0.185,0.184-0.185h10.665c0.101,0,0.184,0.083,0.184,0.185v2.399
          C122.881,332.287,122.798,332.371,122.697,332.371L122.697,332.371z"/>
        <path id="Fill-51" style="fill:#ECA248;" d="M131.156,315.94v7.938c0,0.101,0.081,0.185,0.184,0.185h5.149
          c0.101,0,0.182-0.083,0.182-0.185v-7.938c0-0.101-0.081-0.185-0.182-0.185h-5.149
          C131.238,315.755,131.156,315.839,131.156,315.94"/>
        <path id="Fill-52" style="fill:#ECA248;" d="M131.341,337.907h5.149c0.101,0,0.182-0.083,0.182-0.185v-10.707
          c0-0.101-0.081-0.185-0.182-0.185h-5.149c-0.103,0-0.184,0.083-0.184,0.185v10.707
          C131.156,337.824,131.238,337.907,131.341,337.907"/>
        <path id="Fill-53" style="fill:#ECA248;" d="M155.982,315.94v13.474c0,0.101,0.081,0.185,0.184,0.185h16.182
          c0.101,0,0.184,0.083,0.184,0.185v2.399c0,0.103-0.083,0.187-0.184,0.187h-16.182c-0.103,0-0.184,0.082-0.184,0.185v5.167
          c0,0.101,0.081,0.185,0.184,0.185h21.699c0.101,0,0.184-0.083,0.184-0.185v-13.474c0-0.103-0.083-0.185-0.184-0.185h-16.182
          c-0.103,0-0.184-0.083-0.184-0.185v-2.403c0-0.101,0.081-0.183,0.184-0.183h16.03c0.101,0,0.184-0.083,0.184-0.187v-5.165
          c0-0.101-0.083-0.185-0.184-0.185h-21.547C156.063,315.755,155.982,315.839,155.982,315.94"/>
        <path id="Fill-54" style="fill:#ECA248;" d="M144.949,332.184V315.94c0-0.101-0.083-0.185-0.184-0.185h-5.15
          c-0.101,0-0.184,0.083-0.184,0.185v21.782c0,0.101,0.083,0.185,0.184,0.185h13.426c0.101,0,0.184-0.083,0.184-0.185v-5.167
          c0-0.103-0.083-0.185-0.184-0.185h-7.907C145.032,332.371,144.949,332.287,144.949,332.184"/>
      </g>
      <g id="sane" transform="translate(116.831683, 63.614458)">
        <path id="Fill-1" style="fill:#3D3F45;" d="M-103.313,319.431v35.912c0,0.205,0.164,0.37,0.368,0.37h47.497
          c0.204,0,0.368,0.165,0.368,0.37v7.33c0,0.205-0.164,0.37-0.368,0.37h-47.497c-0.204,0-0.368,0.165-0.368,0.37v15.403
          c0,0.205,0.164,0.37,0.368,0.37h63.576c0.204,0,0.368-0.165,0.368-0.37v-35.912c0-2.248-1.814-4.069-4.053-4.069h-43.812
          c-0.204,0-0.368-0.165-0.368-0.37v-7.334c0-0.205,0.164-0.37,0.368-0.37h31.418c0.204,0,0.368-0.165,0.368-0.37v-15.399
          c0-0.205-0.164-0.37-0.368-0.37h-43.812C-101.499,315.362-103.313,317.185-103.313,319.431"/>
        <path id="Fill-2" style="fill:#3D3F45;" d="M-46.822,331.5h63.723c0.204,0,0.368,0.165,0.368,0.37v7.334
          c0,0.205-0.164,0.37-0.368,0.37h-43.81c-2.24,0-4.053,1.821-4.053,4.069v35.912c0,0.205,0.164,0.37,0.368,0.37H32.98
          c0.204,0,0.368-0.165,0.368-0.37v-60.124c0-2.246-1.814-4.069-4.053-4.069h-76.117c-0.204,0-0.368,0.165-0.368,0.37v15.399
          C-47.19,331.335-47.026,331.5-46.822,331.5L-46.822,331.5z M16.901,363.782h-31.416c-0.204,0-0.368-0.165-0.368-0.37v-7.33
          c0-0.205,0.164-0.37,0.368-0.37h31.416c0.204,0,0.368,0.165,0.368,0.37v7.33C17.269,363.617,17.105,363.782,16.901,363.782
          L16.901,363.782z"/>
        <path id="Fill-3" style="fill:#3D3F45;" d="M41.388,319.431v60.124c0,0.205,0.164,0.37,0.368,0.37h15.341
          c0.204,0,0.37-0.165,0.37-0.37V331.87c0-0.205,0.164-0.37,0.368-0.37h31.416c0.204,0,0.368,0.165,0.368,0.37v47.685
          c0,0.205,0.164,0.37,0.368,0.37h15.343c0.204,0,0.368-0.165,0.368-0.37v-60.124c0-2.246-1.814-4.069-4.053-4.069H45.44
          C43.202,315.362,41.388,317.185,41.388,319.431"/>
        <path id="Fill-4" style="fill:#3D3F45;" d="M113.737,319.431v60.124c0,0.205,0.164,0.37,0.368,0.37h63.576
          c0.204,0,0.368-0.165,0.368-0.37v-15.403c0-0.205-0.164-0.37-0.368-0.37h-47.497c-0.204,0-0.368-0.165-0.368-0.37v-7.33
          c0-0.205,0.164-0.37,0.368-0.37h47.497c0.204,0,0.368-0.165,0.368-0.37v-35.912c0-2.246-1.816-4.069-4.053-4.069H117.79
          C115.55,315.362,113.737,317.185,113.737,319.431L113.737,319.431z M161.602,339.573h-31.418c-0.204,0-0.368-0.165-0.368-0.37
          v-7.334c0-0.205,0.164-0.37,0.368-0.37h31.418c0.204,0,0.368,0.165,0.368,0.37v7.334
          C161.97,339.408,161.806,339.573,161.602,339.573L161.602,339.573z"/>
      </g>
      <g id="Boiler">
        <path id="Fill-5" style="fill:#3D3F45;" d="M22.855,372.454c-2.19-2.362-5.35-3.485-8.543-3.042l-2.899,0.398
          c-0.974-1.39-2.214-2.549-3.65-3.372c-0.01-0.008-0.022-0.014-0.032-0.022c-0.152-0.091-0.307-0.179-0.463-0.256l-0.006,0.008
          c-2.79-1.374-12.752-5.045-12.844-5.079c-0.022-0.008-0.055-0.022-0.089-0.032l-3.267-1.181c-0.04-0.014-0.081-0.03-0.121-0.044
          l-1.685-0.594l-9.958-3.312c-0.596-0.187-1.192-0.374-1.82-0.565l-4.378-1.3c-0.075-0.02-0.149-0.042-0.222-0.062
          c-1.834-0.521-3.606-0.998-5.309-1.433l0.135-0.274c3.453,0,6.404-2.36,7.17-5.727l0.309-1.344
          c0.897-3.934-1.552-7.906-5.473-8.85l-7.752-1.857l4.214-5.914c2.356-3.304,1.6-7.928-1.719-10.323l-1.089-0.777
          c-1.257-0.909-2.739-1.388-4.287-1.388c-2.374,0-4.614,1.157-5.994,3.093l-5.05,7.087l-5.675-8.21
          c-1.372-1.988-3.634-3.173-6.046-3.173c-1.515,0-2.966,0.457-4.21,1.328l-1.127,0.787c-3.323,2.334-4.139,6.95-1.832,10.276
          l5.234,7.57l-8.145,2.887c-3.824,1.364-5.832,5.596-4.481,9.423l0.457,1.304c1.04,2.942,3.83,4.922,6.943,4.922
          c0.836,0,1.661-0.141,2.448-0.421l4.788-1.696c-0.299,2.175,0.289,4.377,1.709,6.107c0.135,0.167,0.273,0.324,0.418,0.477
          c-8.41,4.62-18.796,11.099-27.087,18.456c-1.152,1.026-2.242,2.046-3.242,3.036c-0.018,0.016-0.034,0.034-0.051,0.052
          c-2.226,2.125-2.855,4.455-2.988,6.077c-0.012,0.145-0.002,0.29-0.004,0.437l-0.715,0.109
          c-5.378,0.831-9.196,5.918-8.511,11.341c0.04,0.316,0.436,3.282,1.994,9.492c0.505,2.026,1.085,4.173,1.867,6.135
          c2.198,5.531,7.374,9.363,14.216,10.54c-0.002,0.565,0.051,1.131,0.178,1.698c0.004,0.016,0.412,1.813,0.899,3.541
          c0.071,0.254,0.145,0.505,0.22,0.753c0.463,1.535,0.743,2.27,1.03,3.03c1.248,3.32,4.558,5.284,7.234,6.012l6.4,1.739
          c0.018,0.097,0.028,0.195,0.051,0.29l2.006,8.091c-0.176,0.336-0.333,0.688-0.453,1.062l-3.711,11.632
          c-0.687,2.159-0.208,4.523,1.269,6.236c0.749,0.865,1.697,1.495,2.737,1.865l1.158,3.674c0.848,2.706,3.349,4.546,6.174,4.546
          h35.727c3.059,0,5.701-2.153,6.331-5.161l2.79-13.343c0.311-1.493,0.077-3.02-0.608-4.336l0.915,0.25
          c0.976,0.266,2.004,0.415,3.046,0.443l0.374,0.004c4.533,0,9.044-2.246,11.525-5.729l15.063-20.458
          c0.034-0.044,0.063-0.085,0.095-0.129c2.127-3.042,2.196-6.443,0.186-9.335c-1.499-2.165-3.76-3.358-6.36-3.358
          c-0.798,0-1.612,0.113-2.426,0.326c-0.537,0.137-1.309,0.33-2.218,0.553c-0.123-0.6-0.313-1.171-0.55-1.716
          c2.03-0.765,8.372-3.481,8.966-3.723c11.242-4.558,12.378-13.035,12.493-14.576l1.172-16.367
          C25.941,377.797,24.899,374.658,22.855,372.454"/>
        <path id="Fill-6" style="fill:#DEDFD9;" d="M7.119,376.469c-0.02-1.829-1.204-3.71-2.735-4.485
          c-0.004-0.002-0.008-0.014-0.01-0.014c-0.741-0.457-29.41-12.16-48.42-15.254l-0.069-0.024l-0.012,0.008
          c-0.014-0.002-0.028-0.004-0.04-0.006v-0.002l-0.002,0.002l-0.002-0.002v0.002c-1.008,0.022-27.846,12.194-43.099,27.293
          l0.012-0.002c-0.968,0.855-1.291,1.769-1.107,2.749c0,0,5.438,28.883,5.444,28.913c0.319,1.203,1.345,2.382,2.287,2.628
          c0.857,0.227,1.537,0.408,5.347,0.817c2.147,0.233,8.028,0.771,16.24,0.771c12.745,0,32.149-1.308,52.224-7.532
          c4.655-1.443,12.016-4.385,12.091-4.413c1.164-0.467,2.131-1.869,2.15-3.125C7.418,404.784,7.119,376.469,7.119,376.469
          L7.119,376.469z M-56.947,411.078c-6.628,0-12.02-5.415-12.02-12.067c0-6.654,5.392-12.067,12.02-12.067
          s12.02,5.413,12.02,12.067C-44.927,405.662-50.319,411.078-56.947,411.078L-56.947,411.078z M-18.265,404.529
          c-6.43,0-11.657-5.25-11.657-11.703c0-6.453,5.228-11.703,11.657-11.703c6.43,0,11.659,5.25,11.659,11.703
          C-6.606,399.279-11.836,404.529-18.265,404.529L-18.265,404.529z"/>
        <path id="Fill-7" style="fill:#DEDFD9;" d="M9.323,423.634c-0.35-0.505-0.77-0.741-1.899-0.443
          c-2.408,0.608-7.036,1.745-10.539,2.409l0.45-6.377c-0.008-1.419-1.137-2.278-2.523-1.998l-0.069,0.012
          c-6.059,1.443-12.022,2.525-17.754,3.318l-0.642,0.121c-1.715,0.193-2.701,1.497-2.426,2.902l0.77,4.497
          c-4.8,0.215-9.402,0.233-13.725,0.111l0.293-3.773c0-1.59-1.226-2.517-2.947-2.368l-0.651,0.008
          c-5.776,0.348-11.832,0.457-18.057,0.233l-1.036-0.002c-0.61,0-1.085,0.531-1.018,1.139l0.299,2.743
          c-6.006-0.895-10.24-1.823-11.99-2.236c-1.271-0.298-2.192-0.527-2.887-0.714c-0.869-0.203-1.487-0.356-1.499-0.358
          c-0.327-0.082-0.614-0.022-0.804,0.167c-0.192,0.191-0.257,0.475-0.182,0.805c0.006,0.022,0.497,2.177,0.994,3.825
          c0.398,1.308,0.616,1.889,0.893,2.622c0.293,0.783,1.558,1.676,2.877,2.034l2.263,0.618l45.556,12.399l12.966,3.529
          c0.489,0.133,1.002,0.205,1.525,0.219c2.465,0.068,5.145-1.131,6.481-3.042l15.103-20.508
          C9.82,424.564,9.673,424.14,9.323,423.634"/>
        <path id="Fill-8" style="fill:#DEDFD9;" d="M18.594,389.791l-0.513,7.173c0,0-0.275,5.697-8.461,9.019l1.459-29.571l4.113-0.565
          c2.444-0.338,4.273,1.801,4.061,4.749L18.594,389.791"/>
        <path id="Fill-9" style="fill:#FFFFFF;" d="M0.754,376.565c0.073,3.417,0.271,25.076,0.129,33.05
          c2.459-0.93,4.347-1.68,4.384-1.698c1.164-0.465,2.131-1.867,2.15-3.123c0-0.012-0.299-28.324-0.299-28.324
          c-0.02-1.831-1.204-3.71-2.735-4.487c-0.004,0-0.008-0.012-0.01-0.014c-0.56-0.346-16.954-7.065-33.135-11.683
          C-28.618,360.343,0.663,372.472,0.754,376.565"/>
        <path id="Fill-10" style="fill:#ECA248;" d="M-44.562,332.5l5.473-7.681c0.285-0.4,0.192-0.962-0.208-1.248l-1.111-0.795
          c-0.398-0.288-0.96-0.193-1.248,0.209l-5.485,7.701C-46.192,331.148-45.319,331.762-44.562,332.5"/>
        <path id="Fill-11" style="fill:#ECA248;" d="M-58.998,333.059c0.689-0.787,1.509-1.473,2.438-2.018l-6.396-9.254
          c-0.279-0.406-0.838-0.505-1.24-0.223l-1.121,0.783c-0.404,0.282-0.503,0.845-0.222,1.248L-58.998,333.059"/>
        <path id="Fill-12" style="fill:#ECA248;" d="M-31.792,342.688l-9.76-2.338c-0.073,1.066-0.311,2.107-0.703,3.083l9.756,2.338
          c0.477,0.113,0.958-0.185,1.069-0.666l0.305-1.334C-31.016,343.29-31.313,342.805-31.792,342.688"/>
        <path id="Fill-13" style="fill:#ECA248;" d="M-61.012,342.819c-0.273-0.837-0.43-1.684-0.479-2.525l-10.109,3.58
          c-0.463,0.167-0.709,0.682-0.545,1.145l0.451,1.292c0.166,0.465,0.677,0.712,1.139,0.547l9.758-3.457
          C-60.873,343.209-60.949,343.016-61.012,342.819"/>
        <path id="Fill-14" style="fill:#FFFFFF;" d="M2.608,427.89c0.459,0.318,0.578,0.95,0.261,1.411
          c-0.315,0.463-0.945,0.58-1.404,0.264c-0.459-0.318-0.578-0.95-0.263-1.411C1.519,427.693,2.145,427.574,2.608,427.89"/>
        <path id="Fill-15" style="fill:#FFFFFF;" d="M-0.808,432.287c0.463,0.318,0.58,0.948,0.265,1.411
          c-0.319,0.461-0.945,0.581-1.408,0.264c-0.459-0.318-0.578-0.95-0.261-1.413C-1.897,432.09-1.267,431.971-0.808,432.287"/>
        <path id="Fill-16" style="fill:#DEDFD9;" d="M-42.251,349.724c-0.319-0.328-0.772-0.489-1.226-0.431l-10.194,1.328l1.818-5.395
          c0.675,0.042,1.37-0.03,2.053-0.254c2.901-0.954,4.481-4.087,3.531-6.998c-0.949-2.91-4.069-4.499-6.968-3.545
          c-2.901,0.95-4.481,4.085-3.533,6.996c0.398,1.223,1.192,2.193,2.18,2.859l-2.562,7.612c-0.16,0.473-0.063,0.998,0.251,1.384
          c0.317,0.388,0.81,0.584,1.303,0.519l10.566-1.374l-2.16,13.343c-0.129,0.791,0.406,1.537,1.194,1.664
          c0.077,0.016,0.156,0.022,0.234,0.022c0.697,0,1.311-0.507,1.426-1.221l2.475-15.265
          C-41.792,350.513-41.937,350.053-42.251,349.724"/>
        <path id="Fill-17" style="fill:#FFFFFF;" d="M-47.511,338.245c0,1.125-0.907,2.036-2.028,2.036c-1.119,0-2.028-0.91-2.028-2.036
          c0-1.123,0.909-2.034,2.028-2.034C-48.418,336.211-47.511,337.122-47.511,338.245"/>
        <path id="Fill-18" style="fill:#FFFFFF;" d="M-49.513,395.81c0-0.567-0.455-1.024-1.02-1.024s-1.02,0.457-1.02,1.024
          s0.455,1.024,1.02,1.024S-49.513,396.377-49.513,395.81"/>
        <path id="Fill-19" style="fill:#FFFFFF;" d="M-10.038,392.21c0-0.567-0.457-1.024-1.02-1.024c-0.564,0-1.022,0.457-1.022,1.024
          s0.457,1.026,1.022,1.026C-10.495,393.236-10.038,392.777-10.038,392.21"/>
        <path id="Fill-20" style="fill:#FFFFFF;" d="M-54.996,397.305c0-1.998,1.612-3.616,3.602-3.616c0.802,0,1.535,0.27,2.133,0.716
          c-1.564-2.626-4.42-4.391-7.685-4.391c-4.941,0-8.962,4.036-8.962,8.997c0,1.278,0.271,2.495,0.752,3.596
          c3.442-1.087,7.137-2.087,11.006-2.996C-54.671,398.981-54.996,398.186-54.996,397.305"/>
        <path id="Fill-21" style="fill:#FFFFFF;" d="M-15.846,393.359c0-1.998,1.614-3.618,3.602-3.618c0.867,0,1.649,0.32,2.271,0.831
          c-0.992-3.67-4.329-6.381-8.293-6.381c-4.743,0-8.602,3.875-8.602,8.636c0,0.857,0.131,1.684,0.362,2.465
          c3.762-0.306,7.41-0.477,10.937-0.545C-15.745,394.319-15.846,393.852-15.846,393.359"/>
        <path id="Fill-22" style="fill:#C2C5C2;" d="M-56.947,386.023c-7.133,0-12.937,5.827-12.937,12.987
          c0,7.161,5.804,12.989,12.937,12.989c7.135,0,12.937-5.829,12.937-12.989C-44.01,391.85-49.812,386.023-56.947,386.023
          L-56.947,386.023z M-56.947,411.078c-6.628,0-12.02-5.415-12.02-12.067c0-6.654,5.392-12.067,12.02-12.067
          s12.02,5.413,12.02,12.067C-44.927,405.662-50.319,411.078-56.947,411.078L-56.947,411.078z"/>
        <path id="Fill-23" style="fill:#C2C5C2;" d="M-18.265,380.201c-6.933,0-12.576,5.666-12.576,12.625
          c0,6.962,5.644,12.625,12.576,12.625c6.935,0,12.576-5.664,12.576-12.625C-5.689,385.866-11.331,380.201-18.265,380.201
          L-18.265,380.201z M-18.265,404.529c-6.43,0-11.657-5.25-11.657-11.703c0-6.453,5.228-11.703,11.657-11.703
          c6.43,0,11.659,5.25,11.659,11.703C-6.606,399.279-11.836,404.529-18.265,404.529L-18.265,404.529z"/>
        <path id="Fill-24" style="fill:#DEDFD9;" d="M-29.166,453.87l-1-1.493l-32.111-0.63l-3.715,11.63l38.792-6.576L-29.166,453.87"
          />
        <path id="Fill-25" style="fill:#DEDFD9;" d="M-61.085,449.646l27.135-0.523l0.446-1.614l0.349-1.254l-30.56-7.214
          L-61.085,449.646"/>
        <path id="Fill-26" style="fill:#DEDFD9;" d="M-62.073,467.235l1.111,3.521l0.149,0.465h35.727l2.788-13.343L-62.073,467.235"/>
        <path id="Fill-27" style="fill:#C2C5C2;" d="M-60.048,441.491c0.459,0.316,0.578,0.948,0.261,1.411
          c-0.315,0.463-0.945,0.58-1.406,0.264c-0.459-0.318-0.576-0.95-0.261-1.413C-61.139,441.293-60.509,441.175-60.048,441.491"/>
        <path id="Fill-28" style="fill:#C2C5C2;" d="M-60.491,453.196c0.459,0.318,0.578,0.948,0.261,1.411
          c-0.315,0.461-0.945,0.58-1.406,0.262c-0.457-0.316-0.576-0.948-0.261-1.409C-61.58,453-60.952,452.88-60.491,453.196"/>
        <path id="Fill-29" style="fill:#C2C5C2;" d="M-30.329,454.212c0.459,0.316,0.576,0.948,0.261,1.411
          c-0.317,0.461-0.945,0.581-1.406,0.262c-0.459-0.316-0.578-0.948-0.263-1.411C-31.42,454.013-30.792,453.896-30.329,454.212"/>
        <path id="Fill-30" style="fill:#C2C5C2;" d="M-24.846,460.234c0.459,0.316,0.578,0.948,0.261,1.411
          c-0.315,0.461-0.943,0.58-1.406,0.262c-0.457-0.318-0.576-0.95-0.261-1.409C-25.935,460.035-25.307,459.918-24.846,460.234"/>
        <path id="Fill-31" style="fill:#C2C5C2;" d="M-26.628,467.879c0.459,0.316,0.578,0.948,0.261,1.411
          c-0.315,0.461-0.943,0.581-1.404,0.262c-0.459-0.316-0.578-0.948-0.263-1.409C-27.717,467.683-27.089,467.563-26.628,467.879"/>
        <path id="Fill-32" style="fill:#C2C5C2;" d="M-91.024,391.908l6.234,25.263c-3.612-0.594-7.762-2.386-9.424-6.568
          c-0.638-1.602-1.135-3.453-1.602-5.312c-1.507-6.014-1.85-8.729-1.85-8.729c-0.248-1.956,1.137-3.803,3.079-4.103
          L-91.024,391.908"/>
        <path id="Fill-33" style="fill:#C2C5C2;" d="M-73.034,424.182c-0.428-0.095-0.814-0.183-1.107-0.252
          c-1.271-0.298-2.192-0.527-2.887-0.714c-0.869-0.203-1.487-0.354-1.501-0.358c-0.327-0.082-0.612-0.022-0.802,0.167
          c-0.194,0.191-0.257,0.475-0.182,0.807c0.006,0.022,0.497,2.175,0.994,3.823c0.396,1.308,0.616,1.889,0.893,2.622
          c0.293,0.783,1.558,1.676,2.877,2.034l2.263,0.618l45.556,12.399l12.964,3.529c0.489,0.135,1.004,0.205,1.525,0.219
          c2.467,0.068,5.147-1.131,6.483-3.044l0.99-1.342c-8.731-1.956-66.008-14.802-66.485-15.178
          C-71.867,429.186-72.717,425.584-73.034,424.182"/>
        <path id="Fill-34" style="fill:#C2C5C2;" d="M-44.127,356.699c-0.014,0-0.028-0.002-0.042-0.006h-0.004
          c-1.006,0.022-27.844,12.196-43.097,27.295l0.01-0.002c-0.966,0.855-1.289,1.769-1.105,2.749c0,0,5.438,28.881,5.444,28.913
          c0.319,1.201,1.345,2.38,2.287,2.628c0.857,0.227,1.537,0.406,5.347,0.817c0.378,0.042,0.879,0.091,1.483,0.147
          c-1.428-5.041-4.665-24.13-5.737-31.533C-80.749,379.348-44.392,356.866-44.127,356.699L-44.127,356.699z M-84.614,386.964
          c0.317-0.461,0.945-0.581,1.408-0.264c0.459,0.318,0.576,0.95,0.261,1.413c-0.317,0.461-0.945,0.578-1.406,0.262
          C-84.81,388.059-84.929,387.427-84.614,386.964L-84.614,386.964z M-83.341,394.544c-0.459-0.316-0.576-0.95-0.261-1.411
          c0.315-0.461,0.945-0.578,1.406-0.262c0.461,0.316,0.578,0.946,0.261,1.411C-82.25,394.743-82.879,394.862-83.341,394.544
          L-83.341,394.544z M-80.923,400.41c-0.317,0.461-0.945,0.58-1.406,0.262c-0.459-0.316-0.576-0.948-0.261-1.411
          c0.315-0.461,0.943-0.578,1.406-0.262C-80.725,399.317-80.608,399.947-80.923,400.41L-80.923,400.41z"/>
        <path id="Fill-35" style="fill:#C2C5C2;" d="M-38.067,361.937c0,1.161-0.939,2.103-2.095,2.103
          c-1.156,0-2.093-0.942-2.093-2.103s0.937-2.103,2.093-2.103C-39.006,359.834-38.067,360.776-38.067,361.937"/>
        <path id="Fill-36" style="fill:#C2C5C2;" d="M-26.665,364.868c0,1.161-0.939,2.101-2.095,2.101c-1.158,0-2.095-0.94-2.095-2.101
          c0-1.163,0.937-2.105,2.095-2.105C-27.604,362.762-26.665,363.705-26.665,364.868"/>
        <path id="Fill-37" style="fill:#C2C5C2;" d="M-15.846,369.525c0,1.161-0.937,2.101-2.093,2.101c-1.158,0-2.095-0.94-2.095-2.101
          c0-1.163,0.937-2.105,2.095-2.105C-16.782,367.42-15.846,368.363-15.846,369.525"/>
        <path id="Fill-38" style="fill:#C2C5C2;" d="M-55.832,382.527c-0.41,0.771-1.366,1.068-2.137,0.656
          c-0.77-0.41-1.063-1.366-0.655-2.139s1.364-1.068,2.135-0.658C-55.721,380.795-55.426,381.751-55.832,382.527"/>
        <path id="Fill-39" style="fill:#C2C5C2;" d="M-63.646,384.411c-0.261,0.495-0.873,0.682-1.368,0.421
          c-0.491-0.262-0.681-0.877-0.418-1.374c0.259-0.493,0.873-0.684,1.364-0.419C-63.574,383.3-63.386,383.914-63.646,384.411"/>
        <path id="Fill-40" style="fill:#C2C5C2;" d="M-68.784,388.435c-0.263,0.495-0.873,0.684-1.366,0.419
          c-0.495-0.262-0.683-0.875-0.422-1.372c0.261-0.493,0.875-0.684,1.368-0.421C-68.713,387.324-68.525,387.938-68.784,388.435"/>
        <path id="Fill-41" style="fill:#C2C5C2;" d="M-71.826,393.649c-0.168,0.318-0.56,0.439-0.879,0.27
          c-0.317-0.169-0.438-0.563-0.269-0.883c0.168-0.316,0.562-0.437,0.877-0.27C-71.78,392.936-71.657,393.331-71.826,393.649"/>
      </g>
</svg>
